PathFileType	4	(X/Y/Z)	Kaydara	
DataRate	CameraRate	NumFrames	NumMarkers	Units	OrigDataRate	OrigDataStartFrame	OrigNumFrames	
240.00	240.00	4	72	mm	240.00	45	355	
Frame#	Time	Hips			RightUpLeg			RightLeg			RightFoot			RightFoot_End			LeftUpLeg			LeftLeg			LeftFoot			LeftFoot_End			Spine			Spine1			Spine2			Spine3			Neck			Head			Head_End			RightShoulder			RightArm			RightForeArm			RightHand			RightHandThumb1			RightHandThumb2			RightHandThumb3			RightHandThumb3_End			RightInHandIndex			RightHandIndex1			RightHandIndex2			RightHandIndex3			RightHandIndex3_End			RightInHandMiddle			RightHandMiddle1			RightHandMiddle2			RightHandMiddle3			RightHandMiddle3_End			RightInHandRing			RightHandRing1			RightHandRing2			RightHandRing3			RightHandRing3_End			RightInHandPinky			RightHandPinky1			RightHandPinky2			RightHandPinky3			RightHandPinky3_End			LeftShoulder			LeftArm			LeftForeArm			LeftHand			LeftHandThumb1			LeftHandThumb2			LeftHandThumb3			LeftHandThumb3_End			LeftInHandIndex			LeftHandIndex1			LeftHandIndex2			LeftHandIndex3			LeftHandIndex3_End			LeftInHandMiddle			LeftHandMiddle1			LeftHandMiddle2			LeftHandMiddle3			LeftHandMiddle3_End			LeftInHandRing			LeftHandRing1			LeftHandRing2			LeftHandRing3			LeftHandRing3_End			LeftInHandPinky			LeftHandPinky1			LeftHandPinky2			LeftHandPinky3			LeftHandPinky3_End			
		X1	Y1	Z1	X2	Y2	Z2	X3	Y3	Z3	X4	Y4	Z4	X5	Y5	Z5	X6	Y6	Z6	X7	Y7	Z7	X8	Y8	Z8	X9	Y9	Z9	X10	Y10	Z10	X11	Y11	Z11	X12	Y12	Z12	X13	Y13	Z13	X14	Y14	Z14	X15	Y15	Z15	X16	Y16	Z16	X17	Y17	Z17	X18	Y18	Z18	X19	Y19	Z19	X20	Y20	Z20	X21	Y21	Z21	X22	Y22	Z22	X23	Y23	Z23	X24	Y24	Z24	X25	Y25	Z25	X26	Y26	Z26	X27	Y27	Z27	X28	Y28	Z28	X29	Y29	Z29	X30	Y30	Z30	X31	Y31	Z31	X32	Y32	Z32	X33	Y33	Z33	X34	Y34	Z34	X35	Y35	Z35	X36	Y36	Z36	X37	Y37	Z37	X38	Y38	Z38	X39	Y39	Z39	X40	Y40	Z40	X41	Y41	Z41	X42	Y42	Z42	X43	Y43	Z43	X44	Y44	Z44	X45	Y45	Z45	X46	Y46	Z46	X47	Y47	Z47	X48	Y48	Z48	X49	Y49	Z49	X50	Y50	Z50	X51	Y51	Z51	X52	Y52	Z52	X53	Y53	Z53	X54	Y54	Z54	X55	Y55	Z55	X56	Y56	Z56	X57	Y57	Z57	X58	Y58	Z58	X59	Y59	Z59	X60	Y60	Z60	X61	Y61	Z61	X62	Y62	Z62	X63	Y63	Z63	X64	Y64	Z64	X65	Y65	Z65	X66	Y66	Z66	X67	Y67	Z67	X68	Y68	Z68	X69	Y69	Z69	X70	Y70	Z70	X71	Y71	Z71	X72	Y72	Z72	

45	0.183	6921.0129	906.651	56.2195	6994.208411768976	890.262029464982	2.043989770834745	6918.253557827595	489.0506758157908	-90.5691818581994	6897.787800918406	105.62813701030355	-164.58978477786968	6823.572554102414	30.533289723467757	-5.239074790673865	6857.03306281957	894.8525521069349	122.3194837315701	6790.172249520951	492.6241381311491	218.31258689565635	6744.369276070227	61.663742895214995	298.25112162286575	6611.773154268098	-13.001473844793757	182.5357810645528	6877.509621655459	1032.5040056182634	4.254421797750039	6826.04729148584	1097.4508196277247	-45.50903859246528	6767.65649822184	1159.3586085639179	-98.99335767628489	6705.323171786875	1209.535750188117	-152.70597248372115	6638.374721692043	1263.465667089339	-209.40172452596397	6576.435521118106	1312.6934676060484	-260.0629239184552	6459.480802220304	1410.528580408328	-306.56149959736535	6678.837034470314	1244.2518712338358	-211.84354659393333	6713.330918708424	1213.5390661952981	-307.84212612129147	6738.674944039167	965.8391682058885	-246.29693647345596	6788.828040908906	732.4413511255174	-201.65142038528202	6793.340941741983	707.9691701335657	-208.09579883492808	6787.166151125316	689.6863802704642	-208.74377269732443	6783.233806138409	676.3294784388984	-206.7031562968306	6780.270202859228	664.6599411267865	-202.87025574967487	6796.38356666732	702.178229272636	-199.57129160716016	6803.61992901707	659.2666419469783	-187.94270991072497	6801.657282922621	636.3806982717185	-180.82840898211467	6795.734542218565	629.8205302984012	-179.87448983191075	6787.660268828343	629.5629957308295	-181.42490471462693	6796.799349886918	702.3041385592605	-193.24504932183262	6804.084375312511	660.5155809999997	-178.48073282670467	6801.965385377068	635.7069800229774	-169.9218251166193	6794.83067040397	627.8713486613634	-168.38908771222503	6786.001225080726	627.6279567536167	-169.899884630613	6796.983344929268	703.4046687684146	-189.04376735179903	6803.891060344435	666.6649338396751	-172.08149101443226	6802.054982188007	645.2765992762892	-163.83171625232592	6795.1787293105035	637.843294915198	-161.93385093071095	6786.879541915923	637.673584718731	-163.15562889406664	6796.39568400501	706.5737526284287	-184.76323626563305	6802.622792306271	674.536107240333	-166.46710672119713	6801.138759867653	657.9364796804293	-158.70300060747002	6796.116533155297	652.7696986496023	-156.7585313042188	6788.760968594544	652.7661780388361	-157.51845003454977	6641.9348954170855	1247.5392130224977	-167.95831713644463	6596.929787015335	1204.86140970983	-74.99773158967767	6724.400249695227	1005.6769572266135	-150.79667855819997	6855.254417990237	812.7187534185406	-195.4656957442156	6844.2969662197265	803.3244768970184	-210.70430707213214	6845.839584667579	786.5812188732089	-237.24275680485363	6848.494857833211	772.8226559564264	-256.29365066217616	6852.060943369718	759.5574777921792	-272.6627659135281	6848.0453252592115	794.7677437491293	-213.46860838333697	6846.849502977949	760.2946594438488	-246.02025083802317	6850.898167921443	737.2238635141097	-272.2806103752057	6854.89925549554	727.7696898032358	-287.5970823929818	6859.211980257653	723.2422118899822	-299.59352372284144	6852.618991850352	790.3035574076144	-214.0560925901622	6853.9251254853	754.2646069046692	-246.1227279210845	6858.956483762626	728.6137058493736	-274.7544407241891	6864.078032840184	716.979156771429	-293.22188780709246	6868.940047603306	711.9142277934982	-306.34266855892463	6855.841336254741	787.999399602657	-213.61405355041092	6859.693666712344	753.6136156934784	-241.89110652821282	6864.704413073129	730.8267255990348	-266.77228907462427	6869.976676784742	719.3762212533162	-284.54613220566813	6874.705586030467	714.5058446670895	-296.8642617282862	6859.900785704798	786.5780762640132	-212.36973859214174	6865.803946325803	754.0519021984567	-237.45999034081083	6870.775551373949	735.2851623138747	-257.14484107658814	6875.085148769893	726.6816514351902	-269.9935068110674	6879.541224962409	722.2225692248285	-280.83880822782925
46	0.188	6921.0129	906.651	56.2195	6994.445519074735	890.365628478543	2.158543464350414	6918.518693501659	489.14530396718754	-90.45748237610992	6897.9276736742795	105.69019107207586	-164.4332605170509	6823.705117705643	30.60107195959167	-5.083222265189422	6856.787462709597	894.7421762121844	122.19729241122675	6789.924601338572	492.4929907277992	218.11495636446182	6744.408614110799	61.52939256376002	298.30191339736956	6611.7669670755195	-13.087027553343859	182.59915785852934	6877.5415026875235	1032.531040771735	4.283644417137658	6826.176809061789	1097.5378400552881	-45.506628581466614	6767.894902246651	1159.5084511423815	-99.04393021574573	6705.673798331863	1209.7348552128828	-152.85383329183233	6638.841796349723	1263.7160232199462	-209.65215924104754	6577.002165315358	1312.9847919008857	-260.4084075582973	6460.032104939677	1410.7561386543437	-307.0027478937604	6679.40604566032	1244.6152013510957	-212.03017913615088	6714.641516615261	1214.6751629116231	-308.3311553423774	6740.381802350174	966.6308236417749	-248.12154898044685	6791.142823341097	734.0704370791861	-205.7723665831847	6795.878889503556	709.878304611113	-212.43339986495653	6789.716002442495	691.7625731666488	-213.45113661191328	6785.769498368621	678.503070176297	-211.68462747350938	6782.774886989348	666.8985268159709	-208.09444287603338	6798.879188158926	704.0550571152243	-203.98251965060047	6806.232122102988	661.4089761326535	-192.8841681994489	6804.2562064554395	638.65493607127	-186.16969156559523	6798.282645104717	632.1425826270772	-185.42659937613297	6790.137592037607	631.9015619583739	-187.1260564157271	6799.225370528041	704.1176970517704	-197.68444910945405	6806.5864761908315	662.553899062234	-183.45253257942178	6804.443326837746	637.8799556636242	-175.33194852351633	6797.24265350463	630.0975596260782	-174.05454289587433	6788.333504192344	629.870073026886	-175.72889374538403	6799.358052767737	705.1672179485075	-193.48944078397767	6806.291850731164	668.5859954432764	-177.0094572651118	6804.4246923679275	647.3051890731534	-169.14296992714145	6797.479494651419	639.9180087789714	-167.49205231711628	6789.102843029985	639.7607772347035	-168.86792487039304	6798.7012967716155	708.2661495220834	-189.2015594438795	6804.91257013121	676.3322908424593	-171.3430933892931	6803.387893256712	659.8027218928595	-163.8857461835585	6798.307755904093	654.6618219601592	-162.12132246731744	6790.8791840788435	654.6648882905141	-163.01769843652565	6642.2140237761905	1247.6372922527107	-168.2005257797424	6596.562528128837	1204.3639402527183	-75.47100261890135	6724.640427244399	1005.851858385773	-152.3347813326937	6856.445291951477	813.9064300368304	-198.16807865660357	6845.500852342325	804.7452859280985	-213.74908076983118	6847.107177589387	788.095892662497	-240.5106734583201	6849.780557209999	774.3959495973894	-259.6894335412702	6853.339273468568	761.1738679027077	-276.14159366650546	6849.141882792005	796.2018668672567	-216.4546979256364	6847.766852215567	762.010609958656	-249.300602668166	6851.767676774553	739.0498710913166	-275.71984703033604	6855.81651280132	729.6005051734217	-291.1094994468249	6860.221028913995	725.0340965607655	-303.14924538695146	6853.654020496772	791.7054281304423	-216.95488006345164	6854.752056829824	755.9239427888534	-249.26132134756395	6859.723770425392	730.3878586178593	-278.0538779794965	6864.899355640022	718.7565773316231	-296.6036011364906	6869.860071019907	713.6478198723768	-309.7688415914789	6856.836479998297	789.3721780976001	-216.44399759025598	6860.464800499908	755.1944721334677	-244.8772116377418	6865.416293460401	732.5018473954871	-269.8853964278154	6870.736820376435	721.0514097622284	-287.7315967585324	6875.556704477954	716.1383612279437	-300.08821024786283	6860.862933804392	787.9021808088598	-215.1090972478847	6866.536919502558	755.5399109091227	-240.28798470245167	6871.450723650106	736.8386778182744	-260.0532729906044	6875.790516381025	728.2303891824117	-272.94443162100674	6880.32429929376	723.7307289049088	-283.81790458471414
47	0.192	6921.0129	906.651	56.2195	6994.680485159072	890.4682238755657	2.2720187873763713	6918.780568805676	489.2389190640337	-90.3455705997379	6898.068879517104	105.75193496174029	-164.27774219114758	6823.838968963986	30.66832845375853	-4.9285039334490754	6856.54396374543	894.6327951827528	122.07617910892007	6789.680003226395	492.3628384047135	217.9189660243256	6744.448839084108	61.39603076653131	298.3519903881902	6611.762164339396	-13.172211114484764	182.66171551698056	6877.573615482896	1032.5581473275895	4.31291239570333	6826.306340123201	1097.6249263094794	-45.503957894407655	6768.133062911272	1159.6583666232393	-99.09396163575126	6706.023880279259	1209.9340520842206	-153.00079783358453	6639.308003786512	1263.9664696232198	-209.90133262768194	6577.567650719193	1313.2761926667013	-260.75230246395773	6460.581982915366	1410.9834231133516	-307.4424434620414	6679.9737628790945	1244.9781136720173	-212.2158206973012	6715.949679340853	1215.809853715644	-308.81871881883535	6742.081596075311	967.4217019200589	-249.94543139291383	6793.447031823282	735.7016373572627	-209.90163297843083	6798.405044951315	711.7913068227637	-216.77893793071996	6792.253870310284	693.8439222442073	-218.1662310276664	6788.293237238776	680.6825363174523	-216.67392557926078	6785.267782453617	669.1434324848367	-213.32674285384996	6801.3634216210785	705.9352870968028	-208.40257202830185	6808.832586945326	663.5559498531501	-197.8358473990788	6806.843533272418	640.9345923174551	-191.5218400829601	6800.819328658638	634.4705423721334	-190.98949237122451	6792.603707228883	634.2464435064445	-192.8375971648957	6801.64047635333	705.9341237136885	-202.13326255054295	6809.077586275145	664.5960034115706	-188.43542702076152	6806.910485030245	640.057492966785	-180.75394328845385	6799.644098057529	632.3288863922145	-179.731804868056	6790.655490903363	632.1177340260062	-181.5692950874249	6801.722186057163	706.9322263824466	-197.94491375266196	6808.6822858357355	670.5099838869922	-181.9490796881253	6806.78429371354	649.33730386357	-174.46662844655782	6799.7704220305695	641.9967409017893	-173.06263435415673	6791.316554123571	641.852371761486	-174.59222975408522	6800.996758609607	709.960499229745	-193.65004574263682	6807.192649992657	678.1305440064627	-176.23118801177304	6805.627627385776	661.6713894391878	-169.08130298581582	6800.489825998215	656.5566707951012	-167.49695740305853	6792.988494761361	656.5666297081094	-168.5294901938902	6642.492961568377	1247.7359899992073	-168.44145701499448	6596.197316310894	1203.868916831194	-75.94187290706307	6724.873983551213	1006.0283092986747	-153.8723507776562	6857.622898917608	815.0954367032402	-200.8758056085437	6846.691234956618	806.1673621457886	-216.79747539201824	6848.359452700606	789.6111615242047	-243.78128337403493	6851.049530687194	775.969383148388	-263.08735225169596	6854.5995800962955	762.7900295082567	-279.62216833374964	6850.224502214778	797.6373635819097	-219.444486675381	6848.668244433358	763.727762852348	-252.58282023842793	6852.619260214827	740.8766096704278	-279.16010727929677	6856.714586133501	731.4315679320159	-294.622724731262	6861.20982840502	726.8256997954539	-306.7058049153561	6854.674761210422	793.1086967482208	-219.85769213600554	6855.562541999173	757.5845228109899	-252.40232694525582	6860.4724226911485	732.1627444797759	-281.3548578804829	6865.700506290544	720.5341491168042	-299.98662100164233	6870.7587473699705	715.3809853209558	-313.19636511477245	6857.817144552724	790.7463796503118	-219.27823871563064	6861.219367655079	756.7766462882304	-247.8663930539329	6866.10966210144	734.1778450757113	-273.0008753093704	6871.476948836385	722.7269148063233	-290.91923329482313	6876.38669355008	717.770651899337	-303.3143854441988	6861.810406314488	789.2277138030879	-217.85315317054267	6867.253195444383	757.0292668875373	-243.11978869804193	6872.10759113444	738.3931928329384	-262.96503838032737	6876.47645844684	729.7797213727176	-275.8985870241421	6881.086947126343	725.2390042108138	-286.80030453915015
48	0.196	6921.0129	906.651	56.2195	6994.913258524798	890.5697900830522	2.3843852425733534	6919.039120055536	489.3314956273005	-90.2334620094408	6898.211409472886	105.81335326370386	-164.1232620909385	6823.974099362556	30.735041022474338	-4.77495321321299	6856.302618210233	894.5244354305923	121.95617542472522	6789.438509127845	492.23371019860133	217.72465719684078	6744.489948367397	61.26368522470672	298.4013370642173	6611.758753523462	-13.257008579105365	182.72343605736276	6877.60595779396	1032.585322330677	4.3422220211180855	6826.43586785535	1097.7120675806761	-45.50102549209721	6768.370946374384	1159.808335619315	-99.14344218663103	6706.373364817802	1210.1333139878618	-153.14684080779222	6639.7732714021195	1264.2169715475145	-210.14920305527542	6578.131887585927	1313.5676286555206	-261.0945518242237	6461.130345927709	1411.210399236304	-307.88051476022036	6680.540095756545	1245.3405502235084	-212.40044448580292	6717.255192807588	1216.942942199897	-309.3047608267574	6743.773971221786	968.2116452889593	-251.76832530881046	6795.740120162074	737.3346312499266	-214.0386281743814	6800.918809013563	713.7078089650802	-221.1317963601963	6794.779133073441	695.9300303112434	-222.88838094602778	6790.804389256946	682.8674619939377	-221.6703320072475	6787.748249220595	671.3942309152183	-218.56639816436024	6803.835674402616	707.8185554196145	-212.83082088457832	6811.420685905152	665.7071510546198	-202.79704482060336	6809.418608712665	643.2192303138941	-196.8840898733426	6803.343935799757	636.8039638956886	-196.56236843908215	6795.057960824921	636.5971916389465	-198.55869891675783	6804.044087537972	707.7530644389652	-206.5908557922756	6811.557088794619	666.6414981141144	-193.42870606668885	6809.366226465566	642.2391705551606	-186.18703114283917	6802.03436854516	634.5648974890273	-185.42005199948787	6792.9665539625885	634.3705052276864	-187.42023662360046	6804.075175053998	708.6993479606585	-202.40955014371627	6811.061771178692	672.4365222763727	-186.89965208119435	6809.133179130622	651.3725461218116	-179.80192572445463	6802.050903436288	644.0790848426511	-178.64478888983257	6793.520071688895	643.9479593768091	-180.32770669163563	6803.281513710812	711.6564669032648	-198.1080580892392	6809.462461539976	679.9305102999286	-181.13068883805008	6807.857384964494	663.5421119119219	-174.28892090787735	6802.66216700756	658.4538694755288	-172.88465512710064	6795.0883290819065	658.4710251234187	-174.05301878523704	6642.771668764277	1247.8353011160477	-168.68106572328605	6595.834219078388	1203.3764461510168	-76.41023109987648	6725.100814054543	1006.2062716809223	-155.40911627887948	6858.786919565736	816.2855143277656	-203.5884566915183	6847.867775034023	807.5904014394184	-219.84901343461235	6849.59604743718	791.126702888607	-247.05407411935937	6852.301404758398	777.5426220932115	-266.48687339730924	6855.841485284762	764.4056189104748	-283.1039419177753	6851.292864209096	799.0739256890412	-222.4375017226967	6849.5533719094765	765.4457521726852	-255.86637149629388	6853.4526079642965	742.7036903077187	-282.6008294972058	6857.5931524546895	733.262488021244	-298.13618644698363	6862.1780375976505	728.6166395043314	-310.26262762574845	6855.680908581199	794.5130603549395	-222.76406764780202	6856.356294420263	759.2459906000203	-255.5452322203837	6861.202152981863	733.9379828836303	-284.6568374207083	6866.481182676134	722.3114906671161	-303.3703929640386	6871.635755154144	717.1133516096962	-316.6246819455994	6858.783034184049	792.1217063913253	-222.11632546957395	6861.957098151824	758.359796217939	-250.85816142317046	6866.7842498867185	735.8543566382928	-276.11821164831395	6872.1967799842605	724.402374046617	-294.10851771355385	6877.195253291972	719.402362994289	-306.5422611081293	6862.742917168711	790.554386274358	-220.60146864621618	6867.9525181171475	758.5196456021699	-245.95493794804796	6872.745901209918	739.9483685375078	-265.87965616878694	6877.1427141143595	731.3293097985131	-278.8554861248773	6881.828892608804	726.7470650935721	-289.7855201897558
